<svg xmlns="http://www.w3.org/2000/svg" viewBox="0 0 500 500"><g id="freepik--Floor--inject-24"><ellipse id="freepik--floor--inject-24" cx="264.02" cy="373.4" rx="197.8" ry="114.2" style="fill:#f5f5f5"></ellipse></g><g id="freepik--Shadows--inject-24"><ellipse id="freepik--Shadow--inject-24" cx="422.99" cy="374.73" rx="45.71" ry="26.39" style="fill:#e0e0e0"></ellipse><polygon id="freepik--shadow--inject-24" points="284.19 301.72 230.34 332.81 297.77 371.83 351.62 340.65 284.19 301.72" style="fill:#e0e0e0"></polygon><path id="freepik--shadow--inject-24" d="M78.45,406.1c9.53,5.57,9.53,14.59,0,20.15s-25,5.56-34.51,0-9.53-14.58,0-20.15S68.92,400.54,78.45,406.1Z" style="fill:#e0e0e0"></path></g><g id="freepik--character-1--inject-24"><g id="freepik--Door--inject-24"><g id="freepik--Interior--inject-24"><polygon points="243.7 55.83 243.7 306.86 92.04 394.41 92.04 143.4 243.7 55.83" style="fill:#159A38"></polygon><polygon points="243.7 55.83 243.7 306.86 92.04 394.41 92.04 143.4 243.7 55.83" style="opacity:0.25"></polygon><polygon points="243.7 55.83 205.99 77.41 205.98 285.07 243.7 306.86 243.7 55.83" style="opacity:0.15"></polygon><polygon points="205.98 285.07 248.81 309.79 92.04 400.31 92.04 219.32 205.98 285.07" style="fill:#159A38"></polygon><polygon points="205.98 285.07 248.81 309.79 92.04 400.31 92.04 219.32 205.98 285.07" style="fill:#fff;opacity:0.8"></polygon></g><g id="freepik--Rug--inject-24"><polygon id="freepik--shadow--inject-24" points="103.08 358.36 150.25 385.59 235.16 336.57 187.99 309.34 103.08 358.36" style="opacity:0.1"></polygon><g id="freepik--Mat--inject-24"><polygon points="105.12 353.92 150.83 380.31 233.12 332.81 187.41 306.41 105.12 353.92" style="fill:#159A38"></polygon><polygon points="105.12 353.92 150.83 380.31 233.12 332.81 187.41 306.41 105.12 353.92" style="opacity:0.1"></polygon><polygon points="105.12 353.92 105.12 356.31 150.83 382.71 150.83 380.31 105.12 353.92" style="fill:#159A38"></polygon><polygon points="105.12 353.92 105.12 356.31 150.83 382.71 150.83 380.31 105.12 353.92" style="opacity:0.35000000000000003"></polygon><polygon points="150.83 380.31 233.12 332.81 233.12 335.2 150.83 382.71 150.83 380.31" style="fill:#159A38"></polygon><polygon points="150.83 380.31 233.12 332.81 233.12 335.2 150.83 382.71 150.83 380.31" style="opacity:0.2"></polygon></g><path d="M141.24,359.19l-3.93-3.33c-.12-.1-.16-.19-.13-.27a.38.38,0,0,1,.19-.21l1.88-1.09a.71.71,0,0,1,.31-.07.63.63,0,0,1,.32.08.46.46,0,0,1,.1.07l7.21,6.3a.35.35,0,0,1,.15.35.57.57,0,0,1-.32.38l-1.19.69a1.25,1.25,0,0,1-.64.17,2.35,2.35,0,0,1-.62-.07l-4.32-1.25,2.17,2.49a.56.56,0,0,1,.12.36c0,.14-.11.26-.3.37l-1.19.69a1.41,1.41,0,0,1-.66.18,1.33,1.33,0,0,1-.6-.09l-10.91-4.16-.13-.06a.19.19,0,0,1,0-.36l1.88-1.09a1,1,0,0,1,.36-.11,1,1,0,0,1,.47.08l5.76,2.27-1.75-2a.64.64,0,0,1-.12-.22c0-.1,0-.2.2-.3l1.34-.78a.77.77,0,0,1,.52-.11,2.14,2.14,0,0,1,.39.07Z" style="fill:#fafafa"></path><path d="M155.9,353.62a.75.75,0,0,1,.39-.09.74.74,0,0,1,.38.09l1.52.88a.24.24,0,0,1,0,.45l-6.79,3.93a.8.8,0,0,1-.39.09.69.69,0,0,1-.39-.1l-9.26-5.34a.26.26,0,0,1-.16-.23.25.25,0,0,1,.15-.22l6.69-3.86a.75.75,0,0,1,.39-.09.74.74,0,0,1,.38.09l1.52.88a.23.23,0,0,1,0,.44l-4.41,2.55,1.55.9,4.1-2.37a.74.74,0,0,1,.38-.09.75.75,0,0,1,.39.09l1.52.88a.25.25,0,0,1,.16.22c0,.09-.05.16-.16.23l-4.1,2.36,1.61.93Z" style="fill:#fafafa"></path><path d="M165,348.39a.89.89,0,0,1,.78,0l1.52.88a.27.27,0,0,1,.16.22.28.28,0,0,1-.16.23l-6.64,3.83a.89.89,0,0,1-.78,0l-9.26-5.35a.25.25,0,0,1-.16-.22c0-.09.05-.16.16-.23l1.88-1.08a.74.74,0,0,1,.38-.09.75.75,0,0,1,.39.09l7.36,4.25Z" style="fill:#fafafa"></path><path d="M164.82,343.94l.5.31.67.39.69.4.55.29a5.7,5.7,0,0,0,.76.29,3.35,3.35,0,0,0,.85.12,3.62,3.62,0,0,0,.91-.1,4,4,0,0,0,.95-.39,2.35,2.35,0,0,0,.69-.54,1.11,1.11,0,0,0,.24-.45.62.62,0,0,0-.06-.39,1.2,1.2,0,0,0-.21-.31.55.55,0,0,1-.16-.28c0-.07.07-.15.23-.25l1.88-1.08a.63.63,0,0,1,.32-.08.59.59,0,0,1,.31.08,2.65,2.65,0,0,1,1,1,1.71,1.71,0,0,1,.17,1.19,2.72,2.72,0,0,1-.66,1.25,5.54,5.54,0,0,1-1.47,1.18,8.79,8.79,0,0,1-2.16.89,10,10,0,0,1-2.22.31,8.25,8.25,0,0,1-2.12-.21,7.35,7.35,0,0,1-1.85-.66c-.41-.21-.84-.45-1.29-.71s-.87-.51-1.27-.76a3.73,3.73,0,0,1-1.15-1.07,2,2,0,0,1-.36-1.22,2.4,2.4,0,0,1,.55-1.29,5.36,5.36,0,0,1,1.54-1.24,8.8,8.8,0,0,1,2-.86,10.88,10.88,0,0,1,2.16-.38,8.83,8.83,0,0,1,2.07.1,5.43,5.43,0,0,1,1.73.59.21.21,0,0,1,.13.18.21.21,0,0,1-.13.19l-1.88,1.08a.9.9,0,0,1-.42.14,2.42,2.42,0,0,1-.48-.1l-.54-.12a2.9,2.9,0,0,0-.67,0,3.55,3.55,0,0,0-.8.14,3.89,3.89,0,0,0-.92.39,2.26,2.26,0,0,0-.68.55.83.83,0,0,0-.18.53.8.8,0,0,0,.22.49A2.75,2.75,0,0,0,164.82,343.94Z" style="fill:#fafafa"></path><path d="M172.18,339.61a3.93,3.93,0,0,1-1.16-1.08,1.87,1.87,0,0,1-.36-1.22,2.37,2.37,0,0,1,.54-1.27,5.45,5.45,0,0,1,1.57-1.26,8.52,8.52,0,0,1,2.17-.9,9.6,9.6,0,0,1,2.22-.32,8.14,8.14,0,0,1,2.1.21,7.82,7.82,0,0,1,1.87.67c.43.23.87.47,1.32.73s.86.51,1.23.74a4.06,4.06,0,0,1,1.16,1.08,1.94,1.94,0,0,1,.37,1.22,2.35,2.35,0,0,1-.55,1.28,5.56,5.56,0,0,1-1.57,1.25,8.86,8.86,0,0,1-2.17.91,9.42,9.42,0,0,1-2.21.31,8.59,8.59,0,0,1-2.11-.21,7.82,7.82,0,0,1-1.87-.67c-.41-.22-.84-.45-1.29-.71S172.57,339.85,172.18,339.61ZM181,337.4l-.55-.34-.63-.39-.65-.36-.58-.3a4.59,4.59,0,0,0-.81-.29,3.7,3.7,0,0,0-.87-.11,3.61,3.61,0,0,0-.91.12,3.8,3.8,0,0,0-.9.37,2.3,2.3,0,0,0-.65.52.91.91,0,0,0-.19.53.78.78,0,0,0,.17.5,1.93,1.93,0,0,0,.51.46c.15.11.32.22.52.34l.63.38.65.37.61.31a4.16,4.16,0,0,0,1.69.4,3.44,3.44,0,0,0,1.8-.49c.59-.35.87-.69.84-1A1.37,1.37,0,0,0,181,337.4Z" style="fill:#fafafa"></path><path d="M190.77,333.22l-.43,0-3.72-.59,4.75,2.74a.27.27,0,0,1,.16.22.28.28,0,0,1-.16.23l-1.88,1.08a.78.78,0,0,1-.39.09.74.74,0,0,1-.38-.09l-9.27-5.35a.27.27,0,0,1-.16-.22c0-.09.05-.16.16-.23l1.66-1a1.06,1.06,0,0,1,.59-.15l.42,0,6.29.95-1.64-3.63a.89.89,0,0,1-.05-.24c0-.12.08-.23.27-.34l1.67-1a.74.74,0,0,1,.38-.09.75.75,0,0,1,.39.09l9.27,5.35c.1.06.16.13.15.22s0,.16-.15.22l-1.88,1.09a.8.8,0,0,1-.39.09.74.74,0,0,1-.38-.09l-4.75-2.74,1,2.14a1,1,0,0,1,0,.25c0,.1-.07.18-.22.27l-.91.53A1,1,0,0,1,190.77,333.22Z" style="fill:#fafafa"></path><path d="M206,324.71a.74.74,0,0,1,.38-.09.8.8,0,0,1,.39.09l1.52.88a.25.25,0,0,1,.16.22.27.27,0,0,1-.16.22l-6.8,3.93a.75.75,0,0,1-.39.09.74.74,0,0,1-.38-.09l-9.27-5.35a.28.28,0,0,1-.16-.23.26.26,0,0,1,.16-.22l6.68-3.86a.8.8,0,0,1,.39-.09.78.78,0,0,1,.39.09l1.52.88a.24.24,0,0,1,0,.45L196,324.18l1.55.89,4.1-2.37a.89.89,0,0,1,.78,0l1.52.88a.24.24,0,0,1,0,.45l-4.1,2.37,1.6.92Z" style="fill:#fafafa"></path></g><path id="freepik--Arm--inject-24" d="M183.38,209c-2,.5-6.78,1.45-6.78,1.45s2.57-3.27,1.52-4-1.79,1.53-4.81,2.77-4.2,2.81-6.06,2.83l-23,.32s-16-19.14-18.64-21.08a8.74,8.74,0,0,0-7.08-1.83l3.23,17L135,219.65c3.08,3.06,4.28,4.11,8.39,3.9,4.67-.24,16.5-2.09,23.32-3.21,4.48-.37,6-.19,9.13-.72,3.37-.56,6.92-.57,9.28-4.84C187.85,209.82,186.35,208.28,183.38,209Z" style="fill:#f28f8f"></path><g id="freepik--door--inject-24"><g id="freepik--door--inject-24"><polygon points="138.94 116.94 138.94 323.81 205.98 285.07 205.98 78.25 138.94 116.94" style="fill:#455a64"></polygon><path d="M141.59,212.7a5.26,5.26,0,0,1,2.38-4.13c1.32-.76,2.38-.14,2.38,1.38a5.27,5.27,0,0,1-1.44,3.35v2a1.8,1.8,0,0,1-.81,1.4l-.28.16c-.44.26-.8,0-.8-.47v-2C142.18,214.46,141.59,213.83,141.59,212.7Z" style="fill:#263238"></path><polygon points="165.48 111.52 148.37 121.4 148.37 199.92 165.48 190.04 165.48 111.52" style="fill:#159A38"></polygon><polygon points="165.48 111.52 148.37 121.4 148.37 199.92 165.48 190.04 165.48 111.52" style="opacity:0.30000000000000004"></polygon><polygon points="193.83 95.12 176.71 105 176.71 183.52 193.83 173.64 193.83 95.12" style="fill:#159A38"></polygon><polygon points="193.83 95.12 176.71 105 176.71 183.52 193.83 173.64 193.83 95.12" style="opacity:0.30000000000000004"></polygon><polygon points="165.48 190.04 168.19 191.6 148.37 203.05 148.37 199.92 165.48 190.04" style="fill:#263238"></polygon><polygon points="193.83 173.64 196.54 175.21 176.72 186.65 174.01 185.08 193.83 173.64" style="fill:#263238"></polygon><polygon points="193.83 173.64 193.83 95.09 196.55 93.52 196.54 175.2 193.83 173.64" style="fill:#37474f"></polygon><polygon points="168.19 191.6 176.72 186.65 176.72 105 168.19 109.95 168.19 191.6" style="fill:#455a64"></polygon><polygon points="168.19 191.6 165.48 190.04 165.48 111.52 168.19 109.95 168.19 191.6" style="fill:#37474f"></polygon><polygon points="168.19 204.63 148.37 216.07 148.37 303.96 168.19 292.51 168.19 204.63" style="opacity:0.1"></polygon><polygon points="166.28 210.95 152.75 218.76 152.75 296.2 166.28 288.39 166.28 210.95" style="fill:#455a64"></polygon><polygon points="148.37 216.07 152.75 218.76 152.75 296.2 148.37 303.96 148.37 216.07" style="fill:#37474f"></polygon><polygon points="168.19 204.63 166.28 210.95 166.28 288.39 168.19 292.51 168.19 204.63" style="fill:#37474f"></polygon><polygon points="168.19 292.51 166.28 288.39 152.75 296.2 148.37 303.96 168.19 292.51" style="fill:#263238"></polygon><polygon points="196.55 188.22 176.72 199.67 176.72 287.56 196.55 276.11 196.55 188.22" style="opacity:0.1"></polygon><polygon points="194.64 194.55 181.11 202.36 181.11 279.8 194.64 271.99 194.64 194.55" style="fill:#455a64"></polygon><polygon points="176.72 199.67 181.11 202.36 181.11 279.8 176.72 287.56 176.72 199.67" style="fill:#37474f"></polygon><polygon points="196.55 188.22 194.64 194.55 194.64 271.99 196.55 276.11 196.55 188.22" style="fill:#37474f"></polygon><polygon points="196.55 276.11 194.64 271.99 181.11 279.8 176.72 287.56 196.55 276.11" style="fill:#263238"></polygon></g><polygon points="136.03 322.19 138.94 323.81 138.94 116.94 136.03 118.59 136.03 322.19" style="fill:#263238"></polygon><polygon points="205.98 77.41 205.98 100.76 92.04 166.75 92.04 143.4 205.98 77.41" style="opacity:0.1"></polygon></g><path id="freepik--shadow--inject-24" d="M114.61,367.74c5.4.76,10,3.6,15.21,4.7,3.42.71,7.1.93,10.26-.58,1-.49,2.52-1.55,2.86-2.64.52-1.65-.78-3-1.83-4a46.65,46.65,0,0,0-4.11-3.4,39.94,39.94,0,0,0-9.68-4.75c-3-1.11-6-2.13-9.07-3a48.69,48.69,0,0,0-8.67-1.23,54.58,54.58,0,0,0-19.72,1.38c-6.22,1.73-12,3.4-16.57,8.29a10.43,10.43,0,0,0-3.1,5.84,8.7,8.7,0,0,0,2.7,6.7,14.82,14.82,0,0,0,10.91,4.78,10.74,10.74,0,0,0,7.7-3.42c1.94-2.2,3.43-4.77,6-6.37C102.44,366.94,109,367,114.61,367.74Z" style="opacity:0.1"></path><g id="freepik--Character--inject-24"><path d="M103.72,184.1c-.17,1.89.11,3.88-3.19,5.26,0,0,1.66,4.82-2.19,6.42,0,0,1.31,4.52-1.89,6A4.66,4.66,0,0,1,94.7,207a5,5,0,0,1-.08,6,3.09,3.09,0,0,1,1.2,2.34c.14,1.68-.6,3.69-2.24,4.07a2,2,0,0,0,0-2.54c-1.06-1.21-1.53-2.73-.4-3.84,0,0-3.92-1.19-1.65-5.77a3.9,3.9,0,0,1,.92-6.32s-2.11-4.74,1.85-6.47c0,0-2.31-2.76.73-6,0,0-2.89-4.89,3.19-9.1Z" style="fill:#263238"></path><path d="M126.05,350.53a2.53,2.53,0,0,0,.3-1.29,14.26,14.26,0,0,1,.06-1.46c.24-3.7,3.18-38.83,3.91-46.9,1.23-13.55,1.29-49.78-1.43-61.45l-36.46,2.89c-2.61,6.57-4.51,14.65-4.07,27.33.33,9.67.18,35.9.18,35.9A32.8,32.8,0,0,0,81,317c-2.77,6.73-4.85,23-6.38,29.56-.29,1.24-.62,3-.62,3a6.69,6.69,0,0,0-1.25,3.76,57.24,57.24,0,0,0,1.3,11.95,5.57,5.57,0,0,0,3.75,4.13,3.11,3.11,0,0,0,1.41.23,1.07,1.07,0,0,0,.69-.26c.34-.34,0-1.15,0-1.56a14.74,14.74,0,0,1-.19-2c0-1.31,0-2.9.08-4.21A43.52,43.52,0,0,1,81.14,353l.7-1.67s15.6-31.67,20-39.4c3.52-6.05,7.1-29.57,9.58-42.42l4.32,30.68a59.61,59.61,0,0,0-2.32,9.79c-.64,5.69,2.62,27.62,3.84,35.55a17.93,17.93,0,0,1,.19,3.51,3.22,3.22,0,0,0,0,1.07,2,2,0,0,0,.73.9,9.83,9.83,0,0,0,2.07.75,7.84,7.84,0,0,0,3,.2c.38-.06.74-.19,1.12-.26a2.45,2.45,0,0,0,1.16-.58A2.06,2.06,0,0,0,126.05,350.53Z" style="fill:#ffa8a7"></path><path d="M84.94,376.89l-.28,0a16.9,16.9,0,0,1-7.28-.67,12.64,12.64,0,0,1-5.44-3.52,8.37,8.37,0,0,1-1.29-2.63,20,20,0,0,1-.68-3c-.62-3.23.25-4.14-.72-7.32a25.33,25.33,0,0,1-1.09-3.4,4.39,4.39,0,0,1,.83-1.63l4,5.6,2.65,3.72,1.41,2c.31.44.55,1,.9,1.42a7.75,7.75,0,0,0,1.8,1.23c.65.41,1.32.8,2,1.16a38.39,38.39,0,0,0,4.11,1.92,7.54,7.54,0,0,1,1.69.82,2.18,2.18,0,0,1,.95,1.57,2.08,2.08,0,0,1-.6,1.46A4.79,4.79,0,0,1,84.94,376.89Z" style="fill:#37474f"></path><path d="M80.87,353.45l.67-1.35c.55.46-.22,3.26-.32,6.18a21.24,21.24,0,0,0,.25,3.9,7.71,7.71,0,0,0,1.32,3.28,16.86,16.86,0,0,0,3.75,4.11,5.05,5.05,0,0,1,1.67,1.71,2.82,2.82,0,0,1,.15,2.57,2.91,2.91,0,0,1-1.48,1.26,8.25,8.25,0,0,1-2.64.56A15.74,15.74,0,0,1,75.83,374a9.93,9.93,0,0,1-3.54-3.06,10.13,10.13,0,0,1-1.24-3.75c-.48-2.29-.32-4.63-.6-6.39s-1.71-4.29-1.46-6c.14-.95,1.39-2.55,2.55-3.83s2.23-2.53,2.63-2.16l-.16.8a6.34,6.34,0,0,0,3,3.24A5.7,5.7,0,0,0,80.87,353.45Z" style="fill:#455a64"></path><path d="M83,366a.36.36,0,0,0,.31-.27.36.36,0,0,0-.26-.44c-2.05-.53-5.8-.4-7.56.56a.36.36,0,0,0-.14.49.35.35,0,0,0,.49.14c1.58-.87,5.14-1,7-.49Z" style="fill:#e0e0e0"></path><path d="M82,363.2a.36.36,0,0,0,.32-.25.35.35,0,0,0-.23-.45,11,11,0,0,0-7,.27.36.36,0,1,0,.31.64,10.49,10.49,0,0,1,6.5-.23A.27.27,0,0,0,82,363.2Z" style="fill:#e0e0e0"></path><path d="M81.43,360.33a.34.34,0,0,0,.31-.19.36.36,0,0,0-.14-.49,9.07,9.07,0,0,0-6.79.07.36.36,0,0,0-.17.48.36.36,0,0,0,.48.16,8.33,8.33,0,0,1,6.13-.08A.41.41,0,0,0,81.43,360.33Z" style="fill:#e0e0e0"></path><path d="M142.61,366.42a3.47,3.47,0,0,1-1.37,3.12,13,13,0,0,1-8.91,1.49c-5.17-1.3-6.18-2.69-8-4.56-2.26-2.38-2-3.62-4.55-5.77a25.4,25.4,0,0,1-2.75-2.28,7.51,7.51,0,0,1-.24-2.42Z" style="fill:#37474f"></path><path d="M126.25,348.89l.16-1.11c.7.09,1.25,2.47,2.74,5a20.61,20.61,0,0,0,4.87,5.35c3,2.25,6.7,4.47,8.39,7s-3.56,4.9-7.54,4.81a13.44,13.44,0,0,1-9.48-4.16c-1.64-1.67-2.77-3.73-4-5.06s-3.75-2.69-4.47-4.29a10.12,10.12,0,0,1-.15-4.64c.26-1.57.17-3.73.7-3.64,0,.15,0,.85,0,.85a9,9,0,0,0,5.17,1.44A5.63,5.63,0,0,0,126.25,348.89Z" style="fill:#455a64"></path><path d="M136.68,359.84a.37.37,0,0,0,.18-.37.35.35,0,0,0-.41-.29c-2.1.32-5.49,1.93-6.72,3.52a.35.35,0,0,0,.07.5.36.36,0,0,0,.5-.06c1.11-1.43,4.33-2.95,6.26-3.25Z" style="fill:#e0e0e0"></path><path d="M133.84,357.88a.35.35,0,0,0,.18-.36.36.36,0,0,0-.41-.3,11.05,11.05,0,0,0-6.15,3.4.36.36,0,1,0,.57.44,10.38,10.38,0,0,1,5.69-3.13A.31.31,0,0,0,133.84,357.88Z" style="fill:#e0e0e0"></path><path d="M131.44,355.84a.37.37,0,0,0,.18-.32.36.36,0,0,0-.36-.36,9.06,9.06,0,0,0-5.92,3.32.36.36,0,0,0,.09.5.36.36,0,0,0,.5-.08,8.28,8.28,0,0,1,5.34-3A.33.33,0,0,0,131.44,355.84Z" style="fill:#e0e0e0"></path><path d="M96.41,231.32a86.08,86.08,0,0,0-6.66,17.3c-2,8.52-1.93,14.12-1.85,29s.29,27.77.29,27.77-7.37,4.87-9.81,21.75c0,0,5.81,6,13.52,4,0,0,8.28-14.71,11-19.32s8.54-42.3,8.54-42.3l3.5,30.73s-2.64,7.35-2.3,12.54,1.75,13.31,1.75,13.31a19.77,19.77,0,0,0,14.13-1s2.5-24.12,2.83-32.87,1.4-39.67-2.9-59Z" style="fill:#455a64"></path><path d="M111.44,269.58,114.9,256s6.65.77,11.88-3.1c0,0-1.07,5-10.34,6.44l-4,13.29.06,6.35Z" style="fill:#263238"></path><path d="M128.27,227.59a61.4,61.4,0,0,1-.12-11.24A12.18,12.18,0,0,0,130,200.69c-5.05-8.18-11.45-11.23-11.45-11.23l-8.43-.26c-1.2.14-11.56,1.63-12.88,2,0,0-3.57,3-4.54,6.49-.55,2-.71,4,1.08,10.39l4.39,11.19s1.28,3.35.63,5.7-4.22,8.19-6.1,13.86c0,0,8,7.17,22.69,5.51,12.55-1.43,14.38-5.65,14.38-5.65S128.42,229.88,128.27,227.59Z" style="fill:#fafafa"></path><path d="M104.64,214.1a9,9,0,0,0,8.67,4.51,9.49,9.49,0,0,0,7.93-5.26s-.06,6.62-7.88,6.85S104.64,214.1,104.64,214.1Z" style="opacity:0.1"></path><g id="freepik--arm--inject-24"><path d="M161.31,213.58a4.15,4.15,0,0,0-.78-2.57,1,1,0,0,0-.74-.51,1.48,1.48,0,0,0-1,.48c-1.08,1-2,2-3.13,3a6.41,6.41,0,0,1-3.82,1.59,1.25,1.25,0,0,1,.3-.76c.44-.61.77-1.05,1.24-1.71a3,3,0,0,0,.76-2.45.69.69,0,0,0-.48-.5.85.85,0,0,0-.56.15,21.82,21.82,0,0,0-4.32,2.83c-1.45,1.22-2.31,3.24-4.82,4.23s-5.19,1.23-9.82,1.84c-3.61.47-9.55,1.24-13.55,1.59-5.73-5.81-12.74-16.22-16.56-21.39a65.38,65.38,0,0,0-6.78-8.18c-3.35,1-5.29,2.71-6.07,5.11-2,5.53.82,11.85,8.31,20.18,2.44,2.73,9.83,10.85,13.6,14.64a5.46,5.46,0,0,0,4.3,1.62,61.29,61.29,0,0,0,6.72-1.11c4.13-1,9.37-2.5,13.49-3.5,3.33-.81,6.79-1.79,9.62-2.62a47.83,47.83,0,0,0,5.68-1.89,18,18,0,0,0,4.4-2.32,9.54,9.54,0,0,0,2.3-2.27,10,10,0,0,0,1.24-2.71A8.63,8.63,0,0,0,161.31,213.58Z" style="fill:#ffa8a7"></path></g><path d="M96,160.55c-2.32,3-2.76,6.92-2.19,10.78,1,6.49,4.93,11.54,9.63,13.67,2.81,1.28,6.47,1.82,8.35.18,2.93-2.54,5.9-5,9.06-7.27,2.36-1.67,5-3.34,6.15-6,1-2.26,1-6.13-1.12-7.8a9.16,9.16,0,0,0,3.3-5.23,2.94,2.94,0,0,0-.72-3.19c-.6-.52-2.49-.61-3.29-.7a52.64,52.64,0,0,1-8.26-1.93,29.66,29.66,0,0,0-10.17-.39c-2.64.51-5.65,1.55-7,5.23A6.69,6.69,0,0,0,96,160.55Z" style="fill:#263238"></path><path d="M120,158.76c2,1,4.57,5.58,5,15.52.33,8.42-2.27,10.67-3.6,11.36s-4,.48-6.59.22l.27,4.21s7.47,5.39,1.62,6.51a13,13,0,0,1-9.2-2.21,12.65,12.65,0,0,1-3.66-3.55l-.59-10.45s-1.42,1.56-4.12-.52c-2.23-1.72-3.14-4.79-1.6-6.57a3.7,3.7,0,0,1,5.94.8s1.56.79,2.89-2.1a17.31,17.31,0,0,0,7.07-2.83A15.77,15.77,0,0,0,120,158.76Z" style="fill:#ffa8a7"></path><path d="M113.91,172.32a1.08,1.08,0,0,1-.93,1.21,1.1,1.1,0,0,1-1.18-1,1.06,1.06,0,1,1,2.11-.23Z" style="fill:#263238"></path><path d="M114.08,178.7l4,1.15a2.07,2.07,0,0,1-2.56,1.53A2.21,2.21,0,0,1,114.08,178.7Z" style="fill:#b16668"></path><path d="M116.49,181.41a2,2,0,0,0-2.06-1.82,2.32,2.32,0,0,0-.38.06,2.17,2.17,0,0,0,1.52,1.73A2,2,0,0,0,116.49,181.41Z" style="fill:#f28f8f"></path><path d="M123.27,168.43,121,167.08a1.25,1.25,0,0,1,1.75-.48A1.37,1.37,0,0,1,123.27,168.43Z" style="fill:#263238"></path><path d="M112.19,168.43l-2.37,1.08a1.25,1.25,0,0,1,.59-1.72A1.37,1.37,0,0,1,112.19,168.43Z" style="fill:#263238"></path><path d="M122.88,171.52a1.06,1.06,0,1,1-2.11.23,1.08,1.08,0,0,1,.93-1.21A1.1,1.1,0,0,1,122.88,171.52Z" style="fill:#263238"></path><polygon points="117.76 171.23 118.33 177.59 121.62 176.34 117.76 171.23" style="fill:#f28f8f"></polygon><path d="M114.76,185.86c-2.73-.19-8.39-1.44-9.4-3.58a5.74,5.74,0,0,0,2.13,2.68c1.75,1.32,7.38,2.58,7.38,2.58Z" style="fill:#f28f8f"></path><path d="M103.42,172l.27,4.42h0a3,3,0,0,0,2.83-3.2l-.26-4.09Z" style="fill:#263238"></path></g><g id="freepik--Casing--inject-24"><polygon points="243.7 306.86 248.81 309.79 248.81 52.88 243.7 55.83 243.7 306.86" style="fill:#159A38"></polygon><polygon points="243.7 306.86 248.81 309.79 248.81 52.88 243.7 55.83 243.7 306.86" style="fill:#fff;opacity:0.4"></polygon><polygon points="243.7 306.86 248.81 309.79 248.81 52.88 243.7 55.83 243.7 306.86" style="opacity:0.1"></polygon><polygon points="248.81 309.79 264.46 300.75 264.46 25.76 76.37 134.36 76.37 409.32 92.04 400.31 92.04 143.4 248.8 52.88 248.81 309.79" style="fill:#159A38"></polygon><polygon points="248.81 309.79 264.46 300.75 264.46 25.76 76.37 134.36 76.37 409.32 92.04 400.31 92.04 143.4 248.8 52.88 248.81 309.79" style="fill:#fff;opacity:0.7000000000000001"></polygon><polygon points="264.46 25.76 76.37 134.36 71.34 131.44 259.44 22.85 264.46 25.76" style="fill:#159A38"></polygon><polygon points="264.46 25.76 76.37 134.36 71.34 131.44 259.44 22.85 264.46 25.76" style="fill:#fff;opacity:0.85"></polygon><polygon points="76.37 409.32 76.37 134.36 71.34 131.44 71.34 406.42 76.37 409.32" style="fill:#159A38"></polygon><polyline points="71.34 131.44 71.34 406.42 76.37 409.32 76.37 134.36" style="fill:#fff;opacity:0.6000000000000001"></polyline></g></g></g><g id="freepik--Boxes--inject-24"><g id="freepik--boxes--inject-24"><g id="freepik--Box--inject-24"><g id="freepik--box--inject-24"><g id="freepik--back-box--inject-24"><polygon points="238.9 332.81 285.04 306.17 343.06 339.66 296.92 366.3 238.9 332.81"></polygon><polygon points="285.04 306.17 285.04 260.62 237.97 287.8 277.35 310.61 285.04 306.17" style="fill:#37474f"></polygon><polygon points="285.04 260.62 285.04 306.17 304.61 317.46 343.99 294.65 285.04 260.62" style="fill:#263238"></polygon></g><g id="freepik--front-box--inject-24"><polygon points="237.97 287.8 237.97 332.27 296.92 366.3 296.92 321.9 237.97 287.8" style="fill:#263238"></polygon><polygon points="296.92 321.9 296.92 366.3 343.99 339.12 343.99 294.65 296.92 321.9" style="fill:#37474f"></polygon><polygon points="296.92 321.9 297.84 364.61 332.03 346.03 296.92 366.3 296.92 321.9" style="fill:#455a64"></polygon></g><path d="M302.54,352a.91.91,0,0,1-.48-.13,1.46,1.46,0,0,1-.6-1.33v-3.93h0v-.29l.2,0,3.08-1.81V349a3.53,3.53,0,0,1-1.52,2.87A1.39,1.39,0,0,1,302.54,352Zm-.59-5.1v3.64a1,1,0,0,0,.36.9.69.69,0,0,0,.67-.07,3.12,3.12,0,0,0,1.27-2.44v-.32h-1.14l-.23-1.55Zm1.58,1.21h.72v-2.72l-1.84,1.09.91.16Z" style="fill:#e0e0e0"></path><path d="M303.1,355.16a.25.25,0,0,1-.25-.25v-3.3a.25.25,0,0,1,.5,0v3.3A.25.25,0,0,1,303.1,355.16Z" style="fill:#e0e0e0"></path><path d="M301.66,356a.26.26,0,0,1-.21-.13.25.25,0,0,1,.09-.34l2.87-1.65a.25.25,0,0,1,.34.09.24.24,0,0,1-.09.33L301.79,356A.2.2,0,0,1,301.66,356Z" style="fill:#e0e0e0"></path><path d="M311.9,350.3a.6.6,0,0,1-.27-.07.66.66,0,0,1-.3-.6V349a.25.25,0,0,1,.5,0v.68a.25.25,0,0,0,0,.17s.08,0,.16-.05a1.43,1.43,0,0,0,.46-1.11v-4.4a.25.25,0,0,1,.25-.25.25.25,0,0,1,.25.25v4.4a1.89,1.89,0,0,1-.7,1.54A.77.77,0,0,1,311.9,350.3Z" style="fill:#e0e0e0"></path><path d="M309.29,346.45V346a7,7,0,0,1,3.17-5.48,2.1,2.1,0,0,1,3.41,2v.15Zm4.65-5.86a2.56,2.56,0,0,0-1.24.38,6.54,6.54,0,0,0-2.89,4.61l5.56-3.21a1.85,1.85,0,0,0-.76-1.61A1.39,1.39,0,0,0,313.94,340.59Z" style="fill:#e0e0e0"></path><path d="M320.78,345.23a.25.25,0,0,1-.25-.25v-8.41a.25.25,0,1,1,.5,0V345A.25.25,0,0,1,320.78,345.23Z" style="fill:#e0e0e0"></path><path d="M320.06,338.49l-.1,0a.25.25,0,0,1-.13-.33l.88-2,1,1.13a.25.25,0,0,1,0,.35.24.24,0,0,1-.35,0l-.47-.53-.57,1.31A.25.25,0,0,1,320.06,338.49Z" style="fill:#e0e0e0"></path><path d="M323.07,343.93a.25.25,0,0,1-.25-.25v-8.42a.25.25,0,0,1,.25-.24.25.25,0,0,1,.25.24v8.42A.25.25,0,0,1,323.07,343.93Z" style="fill:#e0e0e0"></path><path d="M322.34,337.18a.15.15,0,0,1-.09,0,.23.23,0,0,1-.13-.32l.88-2,1,1.14a.24.24,0,0,1,0,.35.25.25,0,0,1-.34,0l-.47-.54-.57,1.31A.24.24,0,0,1,322.34,337.18Z" style="fill:#e0e0e0"></path><path d="M248.05,319.37l12.85,7.42a1.28,1.28,0,0,1,.58,1v8.94c0,.73-.52,1-1.15.67L247.48,330a1.27,1.27,0,0,1-.58-1V320C246.9,319.3,247.42,319,248.05,319.37Z" style="fill:#fafafa"></path><polygon points="247.74 320.76 248.17 321.01 248.17 328.89 247.73 328.64 247.74 320.76" style="fill:#455a64"></polygon><polygon points="249.51 321.78 250.27 322.23 250.27 330.11 249.51 329.67 249.51 321.78" style="fill:#455a64"></polygon><polygon points="251.29 322.81 251.73 323.06 251.73 330.95 251.29 330.69 251.29 322.81" style="fill:#455a64"></polygon><polygon points="252.64 323.57 253.51 324.09 253.51 331.98 252.64 331.46 252.64 323.57" style="fill:#455a64"></polygon><polygon points="254.85 324.87 255.29 325.12 255.29 333 254.85 332.75 254.85 324.87" style="fill:#455a64"></polygon><polygon points="256.13 325.59 257.07 326.14 257.07 334.03 256.13 333.47 256.13 325.59" style="fill:#455a64"></polygon><polygon points="258.41 326.92 258.85 327.17 258.85 335.06 258.41 334.8 258.41 326.92" style="fill:#455a64"></polygon><polygon points="259.43 327.5 259.65 327.62 259.65 335.51 259.43 335.38 259.43 327.5" style="fill:#455a64"></polygon><polygon points="257.6 326.49 257.82 326.62 257.82 334.5 257.6 334.37 257.6 326.49" style="fill:#455a64"></polygon><polygon points="254.02 324.39 254.24 324.52 254.24 332.4 254.02 332.27 254.02 324.39" style="fill:#455a64"></polygon><polygon points="252.05 323.26 252.27 323.39 252.27 331.27 252.05 331.15 252.05 323.26" style="fill:#455a64"></polygon><polygon points="250.64 322.49 250.86 322.61 250.86 330.5 250.64 330.37 250.64 322.49" style="fill:#455a64"></polygon><polygon points="248.73 321.32 248.95 321.45 248.95 329.33 248.73 329.21 248.73 321.32" style="fill:#455a64"></polygon><polygon points="260.19 327.95 260.63 328.2 260.63 336.08 260.19 335.83 260.19 327.95" style="fill:#455a64"></polygon></g><polygon points="285.04 260.62 237.97 287.8 296.92 321.9 343.99 294.65 285.04 260.62" style="fill:#455a64"></polygon><polygon points="237.97 287.8 296.92 320.22 343.99 294.65 296.92 321.9 237.97 287.8" style="fill:#fff;opacity:0.1"></polygon><polygon points="257.5 276.51 316.49 310.57 323.74 306.38 264.76 272.32 257.5 276.51" style="fill:#159A38"></polygon><polygon points="323.74 306.37 323.74 315.59 322.86 315.09 321.95 316.66 321.04 316.13 320.13 317.72 319.22 317.18 318.31 318.75 317.39 318.23 316.48 319.81 316.48 310.57 323.74 306.37" style="fill:#159A38"></polygon><polygon points="323.74 306.37 323.74 315.59 322.86 315.09 321.95 316.66 321.04 316.13 320.13 317.72 319.22 317.18 318.31 318.75 317.39 318.23 316.48 319.81 316.48 310.57 323.74 306.37" style="opacity:0.25"></polygon></g><polygon points="292.52 266.5 251.47 290.2 292.52 313.98 333.58 290.2 292.52 266.5" style="opacity:0.1"></polygon><g id="freepik--box--inject-24"><g id="freepik--box--inject-24"><g id="freepik--back-box--inject-24"><polygon points="258.21 289.68 292.52 269.87 326.84 289.68 292.52 309.5 258.21 289.68"></polygon><polygon points="292.52 269.87 292.52 230.67 257.4 250.95 291.3 270.58 292.52 269.87" style="fill:#37474f"></polygon><polygon points="292.52 230.67 292.52 269.87 293.75 270.58 327.64 250.95 292.52 230.67" style="fill:#263238"></polygon></g><g id="freepik--front-box--inject-24"><polygon points="257.4 250.95 257.4 289.22 292.52 309.5 292.52 271.29 257.4 250.95" style="fill:#263238"></polygon><polygon points="292.52 271.29 292.52 309.5 327.64 289.22 327.64 250.95 292.52 271.29" style="fill:#37474f"></polygon><polygon points="292.52 271.29 293.32 308.04 322.74 292.05 292.52 309.5 292.52 271.29" style="fill:#455a64"></polygon></g><path d="M297.37,297.2a.78.78,0,0,1-.42-.11,1.25,1.25,0,0,1-.52-1.14v-3.39h0v-.26l.17,0,2.66-1.56v3.78A3.07,3.07,0,0,1,298,297,1.13,1.13,0,0,1,297.37,297.2Zm-.51-4.39V296a.89.89,0,0,0,.3.78.6.6,0,0,0,.58-.07,2.67,2.67,0,0,0,1.09-2.1v-.28h-1l-.19-1.32Zm1.36,1.05h.61v-2.34l-1.58.93.78.14Z" style="fill:#e0e0e0"></path><path d="M297.84,299.9a.21.21,0,0,1-.21-.21v-2.84a.22.22,0,1,1,.43,0v2.84A.21.21,0,0,1,297.84,299.9Z" style="fill:#e0e0e0"></path><path d="M296.61,300.62a.23.23,0,0,1-.19-.11.22.22,0,0,1,.08-.29l2.47-1.43a.22.22,0,0,1,.22.37l-2.48,1.43A.19.19,0,0,1,296.61,300.62Z" style="fill:#e0e0e0"></path><path d="M305.42,295.72a.48.48,0,0,1-.24-.06.56.56,0,0,1-.25-.51v-.59a.21.21,0,0,1,.42,0v.59a.22.22,0,0,0,0,.14s.07,0,.14,0a1.24,1.24,0,0,0,.4-1v-3.78a.21.21,0,0,1,.42,0v3.78a1.62,1.62,0,0,1-.6,1.33A.63.63,0,0,1,305.42,295.72Z" style="fill:#e0e0e0"></path><path d="M303.17,292.41V292a6,6,0,0,1,2.73-4.71,1.8,1.8,0,0,1,2.93,1.69v.13Zm4-5a2.16,2.16,0,0,0-1.06.33,5.61,5.61,0,0,0-2.49,4l4.78-2.76a1.59,1.59,0,0,0-.65-1.39A1.24,1.24,0,0,0,307.17,287.37Z" style="fill:#e0e0e0"></path><path d="M313.06,291.36a.21.21,0,0,1-.21-.21v-7.24a.21.21,0,1,1,.42,0v7.24A.21.21,0,0,1,313.06,291.36Z" style="fill:#e0e0e0"></path><path d="M312.44,285.56l-.09,0a.21.21,0,0,1-.11-.28l.76-1.75.84,1a.21.21,0,0,1,0,.3.22.22,0,0,1-.3,0l-.4-.46-.49,1.13A.21.21,0,0,1,312.44,285.56Z" style="fill:#e0e0e0"></path><path d="M315,290.24a.22.22,0,0,1-.22-.21v-7.25a.22.22,0,0,1,.43,0V290A.22.22,0,0,1,315,290.24Z" style="fill:#e0e0e0"></path><path d="M314.4,284.44l-.08,0a.21.21,0,0,1-.11-.28l.76-1.75.84,1a.21.21,0,0,1-.32.28l-.4-.46-.49,1.13A.22.22,0,0,1,314.4,284.44Z" style="fill:#e0e0e0"></path><path d="M266.08,278.12l11.06,6.38a1.13,1.13,0,0,1,.5.87v7.68c0,.64-.45.9-1,.58l-11.06-6.39a1.1,1.1,0,0,1-.49-.86v-7.69C265.09,278.06,265.54,277.8,266.08,278.12Z" style="fill:#fafafa"></path><polygon points="265.81 279.31 266.18 279.53 266.18 286.31 265.81 286.1 265.81 279.31" style="fill:#455a64"></polygon><polygon points="267.34 280.2 267.99 280.58 267.99 287.36 267.34 286.98 267.34 280.2" style="fill:#455a64"></polygon><polygon points="268.87 281.08 269.25 281.3 269.25 288.08 268.87 287.86 268.87 281.08" style="fill:#455a64"></polygon><polygon points="270.03 281.73 270.78 282.18 270.78 288.96 270.03 288.52 270.03 281.73" style="fill:#455a64"></polygon><polygon points="271.93 282.85 272.31 283.06 272.31 289.85 271.93 289.63 271.93 282.85" style="fill:#455a64"></polygon><polygon points="273.04 283.47 273.84 283.95 273.84 290.73 273.04 290.25 273.04 283.47" style="fill:#455a64"></polygon><polygon points="275 284.62 275.37 284.83 275.37 291.62 275 291.4 275 284.62" style="fill:#455a64"></polygon><polygon points="275.87 285.11 276.06 285.22 276.06 292 275.87 291.9 275.87 285.11" style="fill:#455a64"></polygon><polygon points="274.3 284.25 274.49 284.35 274.49 291.14 274.3 291.03 274.3 284.25" style="fill:#455a64"></polygon><polygon points="271.21 282.44 271.4 282.55 271.4 289.33 271.21 289.22 271.21 282.44" style="fill:#455a64"></polygon><polygon points="269.52 281.47 269.71 281.58 269.71 288.36 269.52 288.25 269.52 281.47" style="fill:#455a64"></polygon><polygon points="268.31 280.8 268.5 280.91 268.5 287.69 268.31 287.58 268.31 280.8" style="fill:#455a64"></polygon><polygon points="266.67 279.8 266.85 279.91 266.85 286.69 266.67 286.58 266.67 279.8" style="fill:#455a64"></polygon><polygon points="276.53 285.5 276.9 285.72 276.9 292.5 276.53 292.28 276.53 285.5" style="fill:#455a64"></polygon></g><polygon points="292.52 230.67 257.4 250.95 292.52 271.29 327.64 250.95 292.52 230.67" style="fill:#455a64"></polygon><polygon points="257.4 250.95 292.52 269.84 327.64 250.95 292.52 271.29 257.4 250.95" style="fill:#fff;opacity:0.1"></polygon><polygon points="273.01 241.94 308.16 262.23 314.4 258.62 279.26 238.33 273.01 241.94" style="fill:#159A38"></polygon><polygon points="314.4 258.62 314.4 266.55 313.65 266.12 312.86 267.47 312.08 267.01 311.3 268.38 310.51 267.92 309.73 269.27 308.94 268.82 308.16 270.18 308.16 262.23 314.4 258.62" style="fill:#159A38"></polygon><polygon points="314.4 258.62 314.4 266.55 313.65 266.12 312.86 267.47 312.08 267.01 311.3 268.38 310.51 267.92 309.73 269.27 308.94 268.82 308.16 270.18 308.16 262.23 314.4 258.62" style="opacity:0.25"></polygon></g></g></g><g id="freepik--character-2--inject-24"><g id="freepik--character--inject-24"><path d="M450.77,366.71c-2.6,1.5-5.54,1.47-8.73.26l-2.12-17.14,11-2.54Z" style="fill:#b16668"></path><path d="M419,359.55c-2.1,4.9-5.16,3.3-9.81.34L408.83,343l12-.82Z" style="fill:#b16668"></path><path d="M432.07,382.56a4.87,4.87,0,0,0,.17,2.92c.36.53,2.26,2.15,5.85,2.3,3.43.14,6.47-.41,8.44-1.74a5.93,5.93,0,0,0,3-4.73c.14-2-.14-3.83.75-5.36s1.92-2.8,2.2-3.56a9.78,9.78,0,0,0,.12-4.19Z" style="fill:#263238"></path><path d="M440.79,366.25a8.77,8.77,0,0,1-.35,2.18,19.78,19.78,0,0,1-2,4.35,18.88,18.88,0,0,1-1.37,2.06c-1,1.26-2.25,2.31-3.31,3.52a7,7,0,0,0-2,4.27c-.07,2.69,2.87,3.51,5.13,3.85a16.46,16.46,0,0,0,7.28-.59A6.68,6.68,0,0,0,449,380.4c.1-.75,0-1.51.1-2.27a10.6,10.6,0,0,1,1.95-4.76,14.14,14.14,0,0,0,1.52-2.6c.65-1.68,0-3.54-.46-5.18-.43-1.42-.76-3.12-1.26-3,0,.29,0,.92,0,.92-.15.31-.51.53-.61.9a7.34,7.34,0,0,1-.37,1.12,3,3,0,0,1-1.15,1.35l-.2-3a1.46,1.46,0,0,0-.26-.89,1.38,1.38,0,0,0-.87-.34,18.85,18.85,0,0,0-5.75-.31,1,1,0,0,0-.76.36,1,1,0,0,0-.11.69A25.17,25.17,0,0,1,440.79,366.25Z" style="fill:#37474f"></path><path d="M438.12,373.35c1-.78,3.22-.85,4.45-.76a7.43,7.43,0,0,1,3.52,1.12.79.79,0,0,0,1-.11h0a.75.75,0,0,0-.11-1.14,7.49,7.49,0,0,0-4-1.33c-3-.13-3.89.42-3.89.42S437.8,372.47,438.12,373.35Z" style="fill:#f5f5f5"></path><path d="M435.91,376.17c1.23-.78,3.7-.74,4.93-.65a7,7,0,0,1,3.42,1.19.81.81,0,0,0,1-.11h0a.75.75,0,0,0-.11-1.14,7.83,7.83,0,0,0-4.05-1.45c-3-.12-3.79.52-3.79.52A2.48,2.48,0,0,0,435.91,376.17Z" style="fill:#f5f5f5"></path><path d="M444.16,368.21a7.33,7.33,0,0,0-3.78.43c-.53.31-.85,1.16-.5,1.36a7,7,0,0,1,3.34-.56,9.83,9.83,0,0,1,3.29.8c.26.11.57.26.84.4a.71.71,0,0,0,1-.34h0a.66.66,0,0,0-.28-.85A9.68,9.68,0,0,0,444.16,368.21Z" style="fill:#f5f5f5"></path><path d="M390.75,370.8a3.28,3.28,0,0,0,.21,2.38c.35.69,4.07,2.64,9,2.16A20.49,20.49,0,0,0,410,371.48c1.84-1.3,3.79-1.59,6.22-1.8s4.29-1,4.79-2.17a5.41,5.41,0,0,0-.18-3.11Z" style="fill:#263238"></path><path d="M410.23,355.67a10.62,10.62,0,0,1-1.3-.4,1,1,0,0,0-.73-.06,1.07,1.07,0,0,0-.5.83,12.44,12.44,0,0,1-.47,2.15,5.48,5.48,0,0,1-1.34,1.5,23.3,23.3,0,0,1-3.87,2.66c-1.58.91-3.14,1.63-4.78,2.42s-3.91,1.35-5.21,2.28c-1.89,1.36-2,4.64.2,5.87,1.93,1.06,7,2.12,12.17.48,2.83-.9,5.91-4,9.65-4.45,2.38-.25,5.55-.55,7-2.4.54-.82.14-3.16-.22-5.92-.32-2.48-.57-6.34-1.36-6.1,0,0-.32.9-.38,1a6.27,6.27,0,0,1-.68.86,7.93,7.93,0,0,1-.68.62,11.41,11.41,0,0,1-.86.84,2.38,2.38,0,0,1-1.38.54,1.27,1.27,0,0,1-.69-.17c-.4-.24-.44-.77-.76-1.11a4,4,0,0,0-1.3-.89,7.48,7.48,0,0,0-2.14-.49C410.49,355.72,410.35,355.69,410.23,355.67Z" style="fill:#37474f"></path><path d="M404.21,361a2.21,2.21,0,0,1,1.72-1.23c1.08-.23,3,.51,4.24,1.46a.89.89,0,0,1-.08,1.47h0a.89.89,0,0,1-1-.08A6.81,6.81,0,0,0,404.21,361Z" style="fill:#f5f5f5"></path><path d="M400.9,363a2.55,2.55,0,0,1,2.06-1.14,7.94,7.94,0,0,1,4.63,1.58.87.87,0,0,1-.07,1.42h0a.86.86,0,0,1-1-.08A6.79,6.79,0,0,0,400.9,363Z" style="fill:#f5f5f5"></path><path d="M397.24,364.77a2.85,2.85,0,0,1,2.14-1,7.62,7.62,0,0,1,4.44,1.6.88.88,0,0,1-.07,1.43h0a.86.86,0,0,1-1-.09A6.52,6.52,0,0,0,397.24,364.77Z" style="fill:#f5f5f5"></path><path d="M371.48,210.88c-1.9-1.75-3.9-5.94-5.45-3.64-1,1.55,1.12,2.6,1,4.56s-6.09-2.69-8.58-4.43c-1.66-1.16-5.49,2.47-3.95,6.4,1.36,3.49,3.54,5.7,7.45,7.35,4.13,1.75,6.29,2.62,11.47,4.95,2.32-3.29,3.94-6.54,3.37-9.7C372.72,214,373.12,212.39,371.48,210.88Z" style="fill:#159A38"></path><path d="M371.48,210.88c-1.9-1.75-3.9-5.94-5.45-3.64-1,1.55,1.12,2.6,1,4.56s-6.09-2.69-8.58-4.43c-1.66-1.16-5.49,2.47-3.95,6.4,1.36,3.49,3.54,5.7,7.45,7.35,4.13,1.75,6.29,2.62,11.47,4.95,2.32-3.29,3.94-6.54,3.37-9.7C372.72,214,373.12,212.39,371.48,210.88Z" style="fill:#fff;opacity:0.7000000000000001"></path><path d="M371.48,210.88c-1.9-1.75-3.9-5.94-5.45-3.64-1,1.55,1.12,2.6,1,4.56s-6.09-2.69-8.58-4.43c-1.66-1.16-5.49,2.47-3.95,6.4,1.36,3.49,3.54,5.7,7.45,7.35,4.13,1.75,6.29,2.62,11.47,4.95,2.32-3.29,3.94-6.54,3.37-9.7C372.72,214,373.12,212.39,371.48,210.88Z" style="opacity:0.1"></path><path d="M366.63,213.87c0,1.76.48,4.56,3,6a4,4,0,0,1-3-2.1A4.09,4.09,0,0,1,366.63,213.87Z" style="opacity:0.1"></path><path d="M420.55,191.23c-2.25,3-1.32,1.77-2,6.35-.56,3.69-8.31,39.2-15.33,40.67-3.08.65-25.3-9.52-30.69-12.49a25.9,25.9,0,0,0,4.26-9.39c6.46,2.53,17.59,5,21.59,6.26,1.85-5.16,4.11-10.46,6.23-15.67C408.63,197.05,410.92,190,420.55,191.23Z" style="fill:#455a64"></path><path d="M449.63,251.3c0,7.88.54,53.7.54,53.7.2,2.27,2.38,6.3,2.55,14.47.25,11.84-.22,46.65-.22,46.65s-7.4,2.71-12.58.55c0,0-5.51-44.89-7-56.61-1.29-10.23-3.92-33.59-3.92-33.59l-3.65,31a93.07,93.07,0,0,1,.42,14.89c-.38,5.43-5.08,35.8-5.08,35.8s-7.83,1.64-13.47-.26c0,0,.3-48.88.21-53.86-.11-5.67,2.36-54.46,2.36-54.46Z" style="fill:#159A38"></path><path d="M449.63,251.3c0,7.88.54,53.7.54,53.7.2,2.27,2.38,6.3,2.55,14.47.25,11.84-.22,46.65-.22,46.65s-7.4,2.71-12.58.55c0,0-5.51-44.89-7-56.61-1.29-10.23-3.92-33.59-3.92-33.59l-3.65,31a93.07,93.07,0,0,1,.42,14.89c-.38,5.43-5.08,35.8-5.08,35.8s-7.83,1.64-13.47-.26c0,0,.3-48.88.21-53.86-.11-5.67,2.36-54.46,2.36-54.46Z" style="opacity:0.4"></path><path d="M429,276.47l-.65-4.83c-2.33-.4-8.17-4.25-11.61-7.57a28,28,0,0,0,9.64,9.32l-.49,30.69Z" style="opacity:0.15"></path><path d="M435.41,191.09c1.75.42,6,.94,9.08,1.83,2.28.65,3.24,3.44,3.72,5.54,1.52,6.72,1.79,20.81,1.79,20.81l.09,32.82c-5.69,4.14-29,6.24-41-2.49,0,0,1.46-39.09,1.46-45.17s3.38-13.39,12.71-13.94Z" style="fill:#455a64"></path><path d="M436.58,191.33h0a2.16,2.16,0,0,1,1.53,2.95,30.28,30.28,0,0,1-5,7.86c-3.4,3.88-10.6,7-10.6,7s-3.57-4-2.92-8.57,2.5-8.39,3.88-9.46a3.85,3.85,0,0,1,1.19-.53V190a14.4,14.4,0,0,0-6.05.72c-2.43,1.08-6.74,2.89-8.1,10.37S408,250.66,408,250.66s14.43,13.08,42.85,3.51V219.52s-.21-16.2-4.48-26.76h0l-9.75-2Z" style="fill:#159A38"></path><path d="M450.82,235.57c-3.53,2.54-8.27,5.81-11.71,8-1,.64-1.9,1.19-2.62,1.61-.88.51-2.24-.19-3.24-.39-2.67-.55-4.37-.12-6.88,0-2,.09-3.06-.46-3.24,0a2.24,2.24,0,0,0,1.37,2.72,16.23,16.23,0,0,0,3.6,1,20.77,20.77,0,0,1-6.41,1.86c-4.53.57-6.43,2-3.47,5.48a43.93,43.93,0,0,0,13.51,1.82c1-.43,2.12-1,3.3-1.56,1.66-.87,5.08-2.8,8.29-4.54,1.5-.82,3-1.6,4.16-2.19s2.2-1.08,3.34-1.62Z" style="opacity:0.1"></path><path d="M447.31,195.47c-4.75,10.45,2.49,19,2.49,19l.95,2.85C450.55,213.1,449.84,203.36,447.31,195.47Z" style="opacity:0.1"></path><path d="M408.56,233c2.33,4.19,13.15,6.7,22.49,6.84s17.1-2.53,19.77-5v-4.07c-2.67,2.5-10.43,5.19-19.77,5s-20-2.69-22.33-6.88Z" style="fill:#fafafa"></path><path d="M450.82,242.36c-2.67,2.5-10.43,5.19-19.77,5s-20.43-2.75-22.76-6.94l.14-4.09c2.33,4.19,13.28,6.78,22.62,6.92s17.1-2.53,19.77-5Z" style="fill:#fafafa"></path><path d="M422.51,209.12l-.65,47.65c-.73-.15-1.42-.32-2.1-.49Z" style="opacity:0.15"></path><polygon points="385.49 228.61 418.61 230.84 435.46 268.18 403.81 265.24 385.49 228.61" style="fill:#263238"></polygon><path d="M416.14,254.44a7.52,7.52,0,0,0,5.92,4.72,16.43,16.43,0,0,0,8.61-1.6l-1.41-3.12Z" style="opacity:0.15"></path><path d="M395.81,232.5l-.49-1.16c-.27-.63,1.57-1,4.12-.86l4.87.31c2.55.17,4.84.81,5.11,1.45l.49,1.15Z" style="opacity:0.15"></path><path d="M392.75,228.38c-.17-.4.56-.65,1.63-.57l1.93.16s-1.05-2.5,3.21-2.37,5.72,2.9,5.72,2.9l2.07.18a3.77,3.77,0,0,1,2.45.88l.37.71-17.06-1.15Z" style="fill:#159A38"></path><path d="M392.75,228.38c-.17-.4.56-.65,1.63-.57l1.93.16s-1.05-2.5,3.21-2.37,5.72,2.9,5.72,2.9l2.07.18a3.77,3.77,0,0,1,2.45.88l.37.71-17.06-1.15Z" style="opacity:0.30000000000000004"></path><path d="M409.24,232.39c-.22-.53-1.84-1.06-3.85-1.32,0-.07-.05-.13-.07-.19-.23-.55-.05-.95,1.15-.86v-.48l-11.81-.7.57.41c1.55.07,2.21.15,2.63,1.13l.09.22c-1.83,0-3,.37-2.82.89l.49,1.16,14.11.89Z" style="fill:#159A38"></path><path d="M409.24,232.39c-.22-.53-1.84-1.06-3.85-1.32,0-.07-.05-.13-.07-.19-.23-.55-.05-.95,1.15-.86v-.48l-11.81-.7.57.41c1.55.07,2.21.15,2.63,1.13l.09.22c-1.83,0-3,.37-2.82.89l.49,1.16,14.11.89Z" style="opacity:0.4"></path><path d="M437.31,242.51c-1,.65-1.9,1.2-2.62,1.62-.88.5-2.24-.19-3.24-.39-2.67-.55-4.37-.12-6.88,0-2,.1-3.06-.45-3.24,0a2.23,2.23,0,0,0,1.37,2.72,15.62,15.62,0,0,0,3.6,1,20.77,20.77,0,0,1-6.41,1.86c-5.08.64-6.87,2.3-2.18,6.86,2.94,2.85,7.05,3.28,15.52-1.12,1.66-.87,5.08-2.81,8.29-4.55A11.38,11.38,0,0,0,437.31,242.51Z" style="fill:#159A38"></path><path d="M437.31,242.51c-1,.65-1.9,1.2-2.62,1.62-.88.5-2.24-.19-3.24-.39-2.67-.55-4.37-.12-6.88,0-2,.1-3.06-.45-3.24,0a2.23,2.23,0,0,0,1.37,2.72,15.62,15.62,0,0,0,3.6,1,20.77,20.77,0,0,1-6.41,1.86c-5.08.64-6.87,2.3-2.18,6.86,2.94,2.85,7.05,3.28,15.52-1.12,1.66-.87,5.08-2.81,8.29-4.55A11.38,11.38,0,0,0,437.31,242.51Z" style="fill:#fff;opacity:0.7000000000000001"></path><path d="M437.31,242.51c-1,.65-1.9,1.2-2.62,1.62-.88.5-2.24-.19-3.24-.39-2.67-.55-4.37-.12-6.88,0-2,.1-3.06-.45-3.24,0a2.23,2.23,0,0,0,1.37,2.72,15.62,15.62,0,0,0,3.6,1,20.77,20.77,0,0,1-6.41,1.86c-5.08.64-6.87,2.3-2.18,6.86,2.94,2.85,7.05,3.28,15.52-1.12,1.66-.87,5.08-2.81,8.29-4.55A11.38,11.38,0,0,0,437.31,242.51Z" style="opacity:0.1"></path><path d="M459.54,204.63c-3-10.5-7.06-11.38-13.2-11.87C440,203.93,448,213.44,448,213.44l5.81,17.42c-.9,1-10.6,7.88-16.5,11.65,1.7,1.39,4.21,5.65,4.21,8,1.5-.81,3-1.59,4.16-2.19,8.95-4.45,20.9-9.18,21.1-13.71S462.64,215.69,459.54,204.63Z" style="fill:#455a64"></path><path d="M424.84,171.85a1.29,1.29,0,1,0,1.29-1.35A1.33,1.33,0,0,0,424.84,171.85Z" style="fill:#263238"></path><path d="M426.13,167.48,428.8,169a1.58,1.58,0,0,0-.62-2.12A1.49,1.49,0,0,0,426.13,167.48Z" style="fill:#263238"></path><path d="M425.17,179.73l-3,1.12a1.56,1.56,0,0,0,2,1A1.67,1.67,0,0,0,425.17,179.73Z" style="fill:#f28f8f"></path><path d="M414.54,168.55l2.43-1.87a1.47,1.47,0,0,0-2.11-.33A1.6,1.6,0,0,0,414.54,168.55Z" style="fill:#263238"></path><path d="M415.09,171.85a1.25,1.25,0,1,0,1.24-1.3A1.27,1.27,0,0,0,415.09,171.85Z" style="fill:#263238"></path><polygon points="421.86 169.69 421.43 177.54 417.32 176.14 421.86 169.69" style="fill:#f28f8f"></polygon><path d="M424.86,170l18.36-1.36c3.55,2.69,10.16,8.35,10.15,9.92h0v1.09h0a.2.2,0,0,1,0,.13c-.65,1.24-3,2-6.64,2.06-4.32.08-11-.32-12.81-1.84-2.65-2.28-9-9-9-9l.92-.07Z" style="fill:#159A38"></path><path d="M424.86,170l18.36-1.36c3.55,2.69,10.16,8.35,10.15,9.92h0v1.09h0a.2.2,0,0,1,0,.13c-.65,1.24-3,2-6.64,2.06-4.32.08-11-.32-12.81-1.84-2.65-2.28-9-9-9-9l.92-.07Z" style="opacity:0.2"></path><path d="M443.22,169.72c3.71,2.81,10.77,8.86,10.11,10.1s-3,2-6.64,2.06c-4.32.08-11-.32-12.81-1.84-2.65-2.28-9-9-9-9Z" style="fill:#159A38"></path><path d="M443.22,169.72c3.71,2.81,10.77,8.86,10.11,10.1s-3,2-6.64,2.06c-4.32.08-11-.32-12.81-1.84-2.65-2.28-9-9-9-9Z" style="opacity:0.4"></path><path d="M443.22,169.72c.06.53-1.81,1.64-1.81,1.64l.52-3.23Z" style="fill:#159A38"></path><path d="M443.22,169.72c.06.53-1.81,1.64-1.81,1.64l.52-3.23Z" style="opacity:0.30000000000000004"></path><path d="M438.4,159s2.87.4,3.92,2.56c.91,1.88.58,6.42-.64,11.37a46.32,46.32,0,0,1-3.08,9.3,3.77,3.77,0,0,1-2.19,1.75l.14-5.87.21-4.09s-2.62-3.59-2.91-6.53c-.37-3.78.42-5.33.42-5.33Z" style="fill:#263238"></path><path d="M433.76,164.67a11,11,0,0,1-11,10.93,11,11,0,0,1,.07-21.93A11,11,0,0,1,433.76,164.67Z" style="fill:#263238"></path><path d="M436.61,173.36c1,.85,1.79-1.36,2.62-2.23s3.53-2,4.87.81-1.18,7-3.26,7.77a3,3,0,0,1-3.53-1.08v13c-3.12,5.62-8.63,5.45-11.57,5.13s-3.59-3.37-1.44-5.84l0-4a23,23,0,0,1-4.94.23c-2.7-.42-4.11-2.45-4.91-5.37-1.3-4.69-1.82-12.58,0-21.68,3-2.34,13.48-2,19.81,2.06C433.81,170.23,435.62,172.5,436.61,173.36Z" style="fill:#ffa8a7"></path><path d="M415.59,156.11A12.82,12.82,0,0,1,420,153a11.29,11.29,0,0,1,4.28-.91c1.91,0,3.82-.28,5.73-.22,3.32.1,7.32,1.45,8.82,4.68.69,1.48.8,3-.55,4a9.19,9.19,0,0,1-4.05,1.51c-2.45.43-4.89,1-7.37,1.3a22.06,22.06,0,0,1-8-.11,10.9,10.9,0,0,1-3.47-1.48,10.58,10.58,0,0,1-1.5-1.25c-.17-.18-.64-.55-.7-.8s.27-.73.39-1A12,12,0,0,1,415.59,156.11Z" style="fill:#263238"></path><path d="M424.33,186.91s6-1.2,8.12-2.31a6.84,6.84,0,0,0,2.92-2.86,9.47,9.47,0,0,1-1.66,3.38c-1.55,2-9.39,3.39-9.39,3.39Z" style="fill:#f28f8f"></path><path d="M425.42,171.36a1.21,1.21,0,0,0,1.2,1.25,1.24,1.24,0,0,0,1.21-1.25,1.21,1.21,0,1,0-2.41,0Z" style="fill:#263238"></path><path d="M426.62,167.16l2.68,1.21a1.55,1.55,0,0,0-.76-2A1.43,1.43,0,0,0,426.62,167.16Z" style="fill:#263238"></path><path d="M425.3,179.57,421.45,181a2,2,0,0,0,2.61,1.29A2.17,2.17,0,0,0,425.3,179.57Z" style="fill:#b16668"></path><path d="M424.06,182.29a2.07,2.07,0,0,1-1.07.08,1.86,1.86,0,0,1,1.86-1.79,1.77,1.77,0,0,1,.52.08A2.09,2.09,0,0,1,424.06,182.29Z" style="fill:#f28f8f"></path><path d="M415.34,167.88l2.79-1a1.42,1.42,0,0,0-1.86-.91A1.57,1.57,0,0,0,415.34,167.88Z" style="fill:#263238"></path><path d="M415.49,171a1.21,1.21,0,1,0,2.41,0,1.21,1.21,0,0,0-1.2-1.25A1.24,1.24,0,0,0,415.49,171Z" style="fill:#263238"></path><polygon points="422.3 167.88 421.86 177.54 416.97 176.25 422.3 167.88" style="fill:#f28f8f"></polygon><path d="M444,165.25a16,16,0,0,1-.78,4.56,5.76,5.76,0,0,0-1.12-1.28,27.6,27.6,0,0,0-8.26-4.73h0c-6.93-2.67-15-3.09-21.5-.81a14.73,14.73,0,0,1,.86-3.88c2.36-6.16,7.13-9.38,14.75-8.59C436.88,151.45,444.25,156.41,444,165.25Z" style="fill:#159A38"></path><path d="M427.65,159.81c-2.07-.7-7.36-1.11-8.91-.62a9.6,9.6,0,0,1-1.86-2.05c-.72-1.15-.48-2.6.2-2.89s.73.59,3.36,1.9a4.4,4.4,0,0,1-.22-2.66c.43-1.07,1.34.85,3.29,2.08S427.4,157.44,427.65,159.81Z" style="fill:#263238"></path><path d="M439.39,171a10.34,10.34,0,0,0-2.14,3.81,17.82,17.82,0,0,0-.37,2.8l-.23,1.78s-1.39,3.9-4.19,5.45S421.63,188.6,417.9,187s-4.9-8.73-4.64-12.5c0,0,5.23-1.73,7.18-1.38s6.45,2,8.24,2.32c3.89.65,5.31.23,7.73-2.34C438.61,170.77,439.39,171,439.39,171Z" style="fill:#159A38"></path><path d="M439.39,171a10.34,10.34,0,0,0-2.14,3.81,17.82,17.82,0,0,0-.37,2.8l-.23,1.78s-1.39,3.9-4.19,5.45S421.63,188.6,417.9,187s-4.9-8.73-4.64-12.5c0,0,5.23-1.73,7.18-1.38s6.45,2,8.24,2.32c3.89.65,5.31.23,7.73-2.34C438.61,170.77,439.39,171,439.39,171Z" style="fill:#fff;opacity:0.6000000000000001"></path><path d="M439.39,171a10.34,10.34,0,0,0-2.14,3.81,17.82,17.82,0,0,0-.37,2.8l-.23,1.78s-1.39,3.9-4.19,5.45S421.63,188.6,417.9,187s-4.9-8.73-4.64-12.5c0,0,5.23-1.73,7.18-1.38s6.45,2,8.24,2.32c3.89.65,5.31.23,7.73-2.34C438.61,170.77,439.39,171,439.39,171Z" style="opacity:0.1"></path><path d="M413.22,175.36c0-.3,0-.6,0-.87,0,0,5.23-1.73,7.18-1.38s6.45,2,8.24,2.32c3.89.65,5.31.23,7.73-2.34,2.2-2.32,3-2.08,3-2.08a10.34,10.34,0,0,0-2.14,3.81,17.82,17.82,0,0,0-.37,2.8l-.23,1.78a8.94,8.94,0,0,1-1.78,3.31,8.68,8.68,0,0,0,1.17-5,8.28,8.28,0,0,1,1.06-4.16,6.08,6.08,0,0,1-3.76,2.81c-3.45.92-6.13-.4-10.82-1.82C418.93,173.48,417.25,174.17,413.22,175.36Z" style="fill:#fafafa"></path></g></g><g id="freepik--Plant--inject-24"><g id="freepik--Pot--inject-24"><g id="freepik--pot--inject-24"><path d="M45.46,418.81c-8.41-8.68-13.36-44-5.15-50.91H82.08c8.2,6.89,3.26,42.22-5.15,50.91l-.23.24-.29.28c-.23.23-.49.46-.76.69l-.2.16-.63.48a10,10,0,0,1-1.09.7c-6.92,4.05-18.15,4.05-25.07,0h0a10.13,10.13,0,0,1-1.1-.7c-.21-.15-.39-.3-.59-.46l-.25-.19c-.26-.22-.5-.44-.73-.66l-.33-.33Z" style="fill:#455a64"></path><path d="M78.45,365.13c9.53,5.56,9.53,14.58,0,20.15s-25,5.56-34.51,0-9.53-14.59,0-20.15S68.92,359.57,78.45,365.13Z" style="fill:#455a64"></path><g style="opacity:0.1"><path d="M78.45,365.13c9.53,5.56,9.53,14.58,0,20.15s-25,5.56-34.51,0-9.53-14.59,0-20.15S68.92,359.57,78.45,365.13Z" style="fill:#fff"></path></g><path d="M73.87,367.81c7,4.08,7,10.71,0,14.79s-18.35,4.09-25.35,0-7-10.71,0-14.79S66.87,363.72,73.87,367.81Z" style="fill:#263238"></path><path d="M48.52,374.83c7-4.09,18.35-4.09,25.35,0a11.69,11.69,0,0,1,4.19,3.89,11.76,11.76,0,0,1-4.19,3.88c-7,4.09-18.35,4.09-25.35,0a11.76,11.76,0,0,1-4.19-3.88A11.69,11.69,0,0,1,48.52,374.83Z" style="fill:#f5f5f5"></path></g><g id="freepik--Plants--inject-24"><path d="M84.34,299.35,67.65,310.77l15.79-6a29,29,0,0,1-3.12,12.14s-10.43,5.06-16.1,10.4L78.11,323a15.48,15.48,0,0,1-.43,7.26c-.09.32-.19.65-.29,1-.74,2.22-1.79,6.42-3.57,11.4h0a73.25,73.25,0,0,1-5.74,12.56,52.27,52.27,0,0,1-3.82,5.64l-.26.34q-3.87-2.58-8-5C54.35,352,52.58,342,52.26,334,51.05,303,75.49,287.07,94.57,282.49,94.57,282.49,87.59,290.07,84.34,299.35Z" style="fill:#159A38"></path><path d="M84.34,299.35,67.65,310.77l15.79-6a29,29,0,0,1-3.12,12.14s-10.43,5.06-16.1,10.4L78.11,323a15.48,15.48,0,0,1-.43,7.26c-.09.32-.19.65-.29,1-.74,2.22-1.79,6.42-3.57,11.4h0a73.25,73.25,0,0,1-5.74,12.56,52.27,52.27,0,0,1-3.82,5.64l-.26.34q-3.87-2.58-8-5C54.35,352,52.58,342,52.26,334,51.05,303,75.49,287.07,94.57,282.49,94.57,282.49,87.59,290.07,84.34,299.35Z" style="opacity:0.30000000000000004"></path><path d="M71,299.7a22.94,22.94,0,0,0-4.34,5.23,48.28,48.28,0,0,0-3.06,6.1,62,62,0,0,0-3.74,13.08A57.68,57.68,0,0,0,61.36,351h0a.44.44,0,0,1-.85.26h0A58.35,58.35,0,0,1,59.45,324a62.23,62.23,0,0,1,4-13.09,47.87,47.87,0,0,1,3.16-6.07A23.11,23.11,0,0,1,71,299.7Z" style="fill:#fafafa"></path><path d="M10.36,315.42l0,0c.38.48,6.65,8.42,15.84,23.78l16,3.08L30.31,344l6.06,10.28,15.72,3.76-12.42,1.63s3.07,12.16,11.76,17.46c4.8,2.93,7.17,3.42,8.68,2.07,1-.94,1.47-6.72,2.48-11.85s1.34-13.53-3.22-23.81a31.47,31.47,0,0,0-4.84-7.6C43.23,322.56,21.3,315.6,10.36,315.42Z" style="fill:#159A38"></path><path d="M10.36,315.42l0,0c.38.48,6.65,8.42,15.84,23.78l16,3.08L30.31,344l6.06,10.28,15.72,3.76-12.42,1.63s3.07,12.16,11.76,17.46c4.8,2.93,7.17,3.42,8.68,2.07,1-.94,1.47-6.72,2.48-11.85s1.34-13.53-3.22-23.81a31.47,31.47,0,0,0-4.84-7.6C43.23,322.56,21.3,315.6,10.36,315.42Z" style="opacity:0.15"></path><path d="M56,348.83h0s0,0,0,0a48.86,48.86,0,0,1,3.28,13.41h0a143.78,143.78,0,0,1-.08,17.45,2.76,2.76,0,0,0,.91-.52c1-.94,1.47-6.72,2.48-11.85s1.34-13.53-3.22-23.81a31.47,31.47,0,0,0-4.84-7.6c-11.3-13.4-33.23-20.36-44.17-20.54,16.71,3.27,34.42,15,42.93,28.26A33.71,33.71,0,0,1,56,348.83Z" style="opacity:0.1"></path><path d="M27,321.2c8.21,3.91,15.92,9.15,21.9,16.14a43.55,43.55,0,0,1,7.31,11.6,41.83,41.83,0,0,1,3.09,13.33,0,0,0,0,1,0,0,.05.05,0,0,1-.05,0,53.64,53.64,0,0,0-3.82-13,49.94,49.94,0,0,0-7-11.5,57.17,57.17,0,0,0-9.83-9.33A76.34,76.34,0,0,0,27,321.28s0,0,0-.06A0,0,0,0,1,27,321.2Z" style="fill:#fafafa"></path><path d="M110.11,326.83h0a33.85,33.85,0,0,0-4.06,0,64.37,64.37,0,0,0-15.67,2.9c-1.88.59-3.78,1.26-5.65,2-.93.39-1.86.8-2.78,1.23a45,45,0,0,0-12.34,8.3,28.88,28.88,0,0,0-4.4,5.5c-.15.26-.32.52-.47.78h0c-.39.68-.74,1.36-1.07,2a38.7,38.7,0,0,0-4.54,18.83c-.09,4.62,1.19,10,2,10.89a1.66,1.66,0,0,0,.38.32c1.27.91,3.39.54,7.42-1.43,8.07-3.94,11.75-14.86,11.75-14.86l-10.78-2.45,14.13-2,6.17-8.54L79.9,347.84l14.31-1.39a210.71,210.71,0,0,1,15.87-19.6l0,0Z" style="fill:#159A38"></path><path d="M106.05,326.8a64.37,64.37,0,0,0-15.67,2.9c-1.88.59-3.78,1.26-5.65,2-.93.39-1.86.8-2.78,1.23a45,45,0,0,0-12.34,8.3,28.88,28.88,0,0,0-4.4,5.5c-.15.26-.32.52-.47.78h0c-.39.68-.74,1.36-1.07,2a38.7,38.7,0,0,0-4.54,18.83c-.09,4.62,1.19,10,2,10.89a1.66,1.66,0,0,0,.38.32,2.42,2.42,0,0,0,.85.37c-.57-7.2,3.95-25.13,9.68-32.29,6-7.45,19.73-18,38-20.85v0A33.16,33.16,0,0,0,106.05,326.8Z" style="opacity:0.05"></path><path d="M62.35,380a61.57,61.57,0,0,1,1.9-15.75,51.24,51.24,0,0,1,6.08-14.7,35.19,35.19,0,0,1,5.13-6.15,51.91,51.91,0,0,1,6.14-5.12,59.32,59.32,0,0,1,14.07-7.4s0,0,0,0a0,0,0,0,1,0,.06,78.8,78.8,0,0,0-13.58,8,64.89,64.89,0,0,0-6.05,5,35.22,35.22,0,0,0-5.15,5.9,50.6,50.6,0,0,0-6.24,14.42A61.67,61.67,0,0,0,62.44,380a0,0,0,0,1,0,0A0,0,0,0,1,62.35,380Z" style="fill:#fafafa"></path></g></g></g><g id="freepik--speech-bubble--inject-24"><g id="freepik--speech-bubble--inject-24"><g id="freepik--speech-bubble--inject-24"><path d="M427.5,128l3.16-5.94-2.54-7.34v-4.49l7.78,4.49v4.49L432.56,125a.49.49,0,0,1-.23.2h0Z" style="fill:#159A38"></path><path d="M427.5,128l3.16-5.94-2.54-7.34v-4.49l7.78,4.49v4.49L432.56,125a.49.49,0,0,1-.23.2h0Z" style="opacity:0.2"></path><path d="M413.54,77.26a5.16,5.16,0,0,1,2.34-4l1.89-1.09a5.13,5.13,0,0,1,4.67,0L446.1,85.76a5.14,5.14,0,0,1,2.33,4v32a5.15,5.15,0,0,1-2.33,4l-1.9,1.1a5.19,5.19,0,0,1-4.67,0L431,122.07l-3.34,5.78a.49.49,0,0,1-.9-.09l-3.53-10.18-7.38-4.24a5.17,5.17,0,0,1-2.33-4Z" style="fill:#159A38"></path><path d="M448.43,121.84a5.14,5.14,0,0,1-2.33,4l-1.9,1.1a5.2,5.2,0,0,1-4.27.18c1.1.42,1.94-.2,1.94-1.53v-32a4.68,4.68,0,0,0-.69-2.3l6.57-3.79a4.77,4.77,0,0,1,.68,2.3Z" style="opacity:0.2"></path><path d="M413.62,76.6c.27-1,1.17-1.31,2.25-.69l23.67,13.64a4.6,4.6,0,0,1,1.64,1.74l6.56-3.79a4.68,4.68,0,0,0-1.64-1.74L422.44,72.13a5.17,5.17,0,0,0-4.66,0l-1.91,1.1A5.13,5.13,0,0,0,413.62,76.6Z" style="fill:#fff;opacity:0.5"></path></g><g id="freepik--Check--inject-24"><path d="M424.4,112.1h-.29a2.1,2.1,0,0,1-1.62-1.2l-4.2-8.92a2.11,2.11,0,1,1,3.81-1.8l2.82,6,9.68-11.27a2.11,2.11,0,1,1,3.2,2.75L426,111.37A2.08,2.08,0,0,1,424.4,112.1Z" style="fill:#fafafa"></path></g></g></g></svg>